<svg viewBox="0 0 170 110" xmlns="http://www.w3.org/2000/svg">
  <title>
    logo_pink_blk
  </title>
  <defs>
    <radialGradient fx="50%" fy="50%" id="a">
      <stop stop-color="#FFF" offset="20%"/>
      <stop stop-color="#FFFBFD" offset="30%"/>
      <stop stop-color="#FEEEF8" offset="40%"/>
      <stop stop-color="#FCDAEE" offset="50%"/>
      <stop stop-color="#FABDE1" offset="60%"/>
      <stop stop-color="#F797D0" offset="70%"/>
      <stop stop-color="#F46ABC" offset="80%"/>
      <stop stop-color="#F034A4" offset="90%"/>
      <stop stop-color="#EC008C" offset="100%"/>
    </radialGradient>
  </defs>
  <g transform="translate(5 19)" fill="none" fill-rule="evenodd">
    <path d="M98.8 54.2c6.4 8.2 16.3 13 26.8 12.9a32.5 32.5 0 0 0 33.2-31.7 32.5 32.5 0 0 0-33.2-31.7 33.7 33.7 0 0 0-26.8 13L.6.3v70l98.2-16.1z" fill="#231F20" fill-rule="nonzero"/>
    <path d="M126.3 30.9v-2.3m0 13.3v-2.4m4.8.4l-1.7-1.7m1.2-2.9h2.4m-3.6-3.1l1.6-1.7m-8 1.7l-1.7-1.7m.2 9.5l1.8-1.8" stroke="#EA0A8C" stroke-width=".8" stroke-linecap="round" stroke-linejoin="round"/>
    <circle fill="url(#a)" fill-rule="nonzero" cx="126.3" cy="35.3" r="2.9"/>
    <path d="M21 5c-.8.2-.4 1.3-.5 1.8-.5 1.9-.2 4-.4 5.8-.6 4.7-.4 9.5-1 14.2l-.8 4c-.2 1.3-.7 2.5-.9 3.8 0 .5 0 1.5-.3 1.9l-.1-.6-.2-1.9a43 43 0 0 0-.5-5.5c0-.9 0-1.7-.2-2.6-.4-.5-1-.5-1.5-.2-.3.3-.2.8-.3 1.2l-.3 2.5-1 7.3c0 .9 0 1.7-.2 2.6-.2 1-.3 2-.2 3v.5l-.1-1.1-.2-5.1c0-2.5 0-5-.3-7.5-.2-1.6 0-3.3-.1-5-.1-1.7.1-3.4-.1-5.2-.2-1.8 0-3.2-.2-4.8a1 1 0 0 0-1.4-.6c-.4.2-.3.5-.3.9l-.1 1.7c-.3 2.4 0 5-.3 7.4-.3 1.9 0 3.8-.3 5.7-.6 5-.3 10-.7 14.9-.2 1.8-.1 3.7-.4 5.5 0 1 0 2-.2 2.9l-.2 2.8c-.3 1.8-.4 3.6-.5 5.4l-.1 2-.1.7v-2.7c-.2-.8 0-1.6 0-2.4-.2-2-.3-4.2-.3-6.3 0-10.5-1-21-1-31.5l-.1-7.4c0-.6.2-2.2-1-2.2-.4 0-.8.2-.9.6l-.5 3.2-1.9 10.8-.5 2.9c0 .2-.2.7 0 .9a3 3 0 0 0 1.7 0c.2-.6.3-1.3.3-2l.8-5.3.3-1.6.1-.5.1 1v3.4c0 4.8.5 9.7.5 14.5 0 7 .6 14.1.6 21.2 0 1-.3 2.7.2 3.8l.9 1.3c.2.4.5 1.3 1.2 1.4 1.2 0 1-.7 1.1-1.3.3-1.3 0-2.7.4-4 .5-1.8.2-3.8.4-5.7.6-4 .7-8.1 1-12.2l.1-5 .1-1.2v-.3 1.3l.2 4.4c0 5.2.5 10.5.5 15.8l.1 4c.1.5.5.8 1 .7 1-.2.8-1.1.8-1.6 0-1.6 0-3.3.3-4.9.4-3.1.2-6.3.6-9.5.3-2.5.5-5 .5-7.4 0-1.4.4-2.7.4-4l.1-1 .1-.3v1.3c0 1.5.2 3 .4 4.4.2 1.2 0 2.7.4 4a1 1 0 0 0 1.7 0c.2-.5.3-1.1.3-1.7l.5-3.6c.5-3.8 1.3-7.5 2.3-11.2.2-1.3.3-2.5.2-3.8l.1-1.2V24l.2 4.8c0 5.6.6 11.3.6 17l.2 4c0 .5-.1 1.1.8 1.2.9.1 1-.8 1-1.3l.4-4.5 1-10c.2-1.1 0-2.3.3-3.5.3-1.9.4-3.8.4-5.7a42.2 42.2 0 0 1 .5-6.7V19l.1.3.1 1.3c0 1.8 0 3.6.3 5.4.6 4.3.4 8.6 1 12.9 0 1.8.2 3.5.5 5.3l1 4.2c.1.4 0 1.2.7 1.4.7.2 1.2-.1 1.2-.6l.4-3.7.4-3.5.8-7 .4-3 .1-1 .2.4.1 1 .4 2.8c0 .4 0 .8.2 1.2.3.5 1.3.4 1.6 0 .6-.7 1-1.5 1.5-2.3.2-.7.3-1.5.3-2.2l.7-6a23.2 23.2 0 0 0 .5-3.3l.1 1.1c0 1.3 0 2.7.2 4 .5 1.8 0 3.7.3 5.5.3 1.8 0 3.6.3 5.5.2 1 .3 2 .3 3.1l.2 3.6c0 .4 0 1 .5 1.3.5.2 1 0 1.3-.5.2-1 .4-2 .4-3 .3-2.5.8-5 1-7.5.3-1.8.3-3.7.6-5.6.1-1.2 0-2.5.3-3.7 0-.1 0-1 .2-1l.1.3c.1.4 0 1.1.5 1.4.4.3 1 .2 1.4-.2 0 0 .2-.4.3-.3.2.2.1 1 .2 1.3.3 1.3.3 2.7.7 4 .1.5 0 1.2.4 1.5 1.3 1 2.1-1.3 2.5-1.8 0-.1.5-.8.5-.6l.4 3.3.8 7.1c0 .7 0 1.3.2 2l1.1 1c.2.4.6.6 1 .8 1 .3 1.1-.5 1.2-1l.4-5.2.1-1.5v-.4l.2.5v1.6c.3 2.2.3 4.4.5 6.6.1.6 1.2.8 1.7.3.2-.3.2-.9.2-1.2l.1-2c.5-3.3.6-6.5 1-9.8l.3-2.6c0-.4 0-.9.3-1.2l.2.8.4 2.6a38 38 0 0 0 2 8.2c.3.5 1.2.6 1.6 1 .4.4.3 1 .4 1.4a19 19 0 0 0 1.1 3.9c.3.4.8.5 1.2.3.7-.2.6-1.3.6-1.8 0-1 .2-1.9.4-2.8 0-.8 0-1.6.2-2.4.1-.5 0-1 .2-1.5v-.5l.1.5c0 .6.2 1.2.4 1.8a1 1 0 0 0 1.6 0l.4-1.7.6-3.3.3-1.3.1-.4.2.5.2 1.3 1 4.5c0 .4 0 1.3.8 1.4.8.1 1-.5 1.2-1l1-3.5.5-1.1.3-.3.3.5c.2.6.3 1.5.8 2a5 5 0 0 0 2.4.4c.2 0 .7-.4.9-.3.2.1.2.5.3.7.2.6.6 2.5 1.7 2.5.7 0 1-.7 1.2-1.1a38 38 0 0 0 1.8-3.6l.6-1.3s0-.3.2-.3.5.9.5 1l.8 2.2c.1.3.1.6.5.8 1.2.7 1.6-1 1.8-1.5l.2-.7.5 1.1a4 4 0 0 0 1.4 1.7c.3.3.7.5 1.2.6 1.1 0 1.2-1.8 1.4-2.4l.3-1 .2.6c.2.5.4 1.4 1.5 1.1.8-.2 1-1.7 1.3-2.2.1-.2.2-.7.5-.8.3-.1.6.4.7.5.4.5 1 1.5 1.8 1.4.8-.1 1-.8 1.7-1 .7-.2 1.2.3 1.8 0 .2 0 .6-.8.8-.8l.3.8c.3.6.5 1.9 1.6 1.8.7 0 .9-.8 1.1-1.2l.3-.5.4.6c.2.4.4.8 1 .9a7 7 0 0 0 1.8-.4h1.7c.5 0 1-.5 1.5-.6h1.4c.4 0 1-.5 1.6-.6l1.6-.1 1.2-.3V35l-1.8.5h-1.4c-.4 0-1 .4-1.6.5l-1.7.1-1.3.5h-1.5c-.2 0-.6.3-.9.2-.3-.1-.3-.4-.4-.5-.3-.5-.7-1.7-1.6-1.8-.7 0-1 .6-1.1 1 0 0-.2.5-.4.5s-.2-.6-.3-.7c-.2-.5-.3-1.5-1.3-1.6-1.3 0-1.1 1.6-2 1.9-.5 0-1-.2-1.4 0-.4.2-.7.5-1 .5-.3 0-.8-.9-1-1a5 5 0 0 0-2.4-.6c-.7 0-.9.7-1 1.1 0 .1-.2.6-.4.6s-.3-.7-.3-.8c-.2-.6-.4-1.5-1.5-1.4-.5 0-.6.5-.7.8l-.8 2.6c0 .2-.1 1.1-.3 1.1-.2 0-.5-.8-.6-1l-1-2.3c0-.2 0-.6-.4-.8-1.2-.7-1.6.8-1.8 1.4l-.3.6-.2-.7c-.2-.5-.3-1.6-1.2-1.7-.8 0-1.6.1-2.3.5l-.5 1-.8 2-1 1.6-.3-.6c-.1-.4-.3-1.3-.8-1.6-1-.7-1.8 1-2.8.5-.3-.1-.3-.6-.4-.8l-1-2.3a1 1 0 0 0-1.4-.7c-.4.1-.5.5-.7.8-.5.6-1 1.3-1.3 2.1l-.4 1.2-.1-.4-.3-1.2c0-.6-.2-1.2-.4-1.8 0-.3 0-.7-.3-.9l-1-.6a2 2 0 0 0-1.3-.4c-1 .2-1 2-1.1 2.7l-.2 1c-.2 0-.2-1-.3-1l-.5-2.7a1 1 0 0 0-1.2-.5c-.7.3-.7 1.6-.7 2.2 0 1.2-.2 2.5-.4 3.7 0 .8 0 1.5-.2 2.3l-.2 1.7v.6l-.4-1c-.2-.5-1-.7-1.4-1-.3-.2-.4-.7-.4-1l-1.2-3.8c-.5-2-.8-4.1-1-6.2 0-1-.2-2-.4-3-.1-.4 0-.8-.7-.9-1.2-.1-1.4 1.1-1.6 1.8l-1 2.2a9.8 9.8 0 0 0-.3 3.4l-.2 1.7c0 .1 0 .6-.2.6s0-.5 0-.6l-.1-1.7c-.1-2-.4-4-.4-6.1 0-.5.1-1.8-.8-1.8-.4 0-.9 0-1 .3l-.3 2.7c-.5 3.5-.4 7-.9 10.5 0 1 0 2-.2 3v1l-.2-.6c0-.7 0-1.3-.2-2-.7-2.6-.3-5.5-.9-8.2-.1-.7.2-2.7-1-3-.8 0-1.8 1-2.3 1.5l-.4.5v-.4l-.3-1.3-.7-4c0-.4 0-1-.4-1.4a1 1 0 0 0-1.4.2l-.3.5-.1-.3-.3-1-.6-3.4c-.2-.4-.2-.9-.9-1a.8.8 0 0 0-1 .7c-.2.9 0 1.8-.2 2.6-.2 1.5-.4 3-.4 4.4l-.7 7c0 1.1 0 2.2-.3 3.3 0 0 0 1-.2 1v-1c0-1 0-1.9-.2-2.8-.2-1.9 0-3.7-.3-5.5-.2-1.6-.3-3.3-.3-4.9 0-.8 0-1.6-.2-2.4 0-.3 0-.7-.7-.8-1.2 0-2.2.8-2.6 1.9l-.8 6c0 .9-.1 1.7-.3 2.6l-.3 2.4c0 .1 0 .8-.2.8s0-.5 0-.6a5 5 0 0 1-.3-1.7c-.1-2.2-.5-4.4-.8-6.6 0-.5-.7-1.9-1.7-1-.3.3-.2.8-.2 1l-.4 3c-.5 3.8-1.5 7.6-1.5 11.4l-.5 3.6-.1 1.1v-.3a6 6 0 0 1-.4-1.3l-.3-5.4-.3-4.5c-.2-1.6-.1-3.3-.4-5-.4-3.1 0-6.3-.8-9.4l-1-4.3c0-.5-.1-1.3-1-1.4-.9-.1-.9.6-1 1-.2 1.2.1 2.4-.2 3.5l-.2 3.7c-.5 3.9-.3 7.7-.8 11.5l-.3 4.2-.1 1-.1.3c-.1 0 0-.4 0-.4V36l-.2-5.5c0-2.5 0-5-.3-7.6v-2.3c-.2-3.2-.2-6.5-.3-9.7-.1-1.5 0-3.1-.2-4.7 0-.5-.3-1.3-1.3-1" fill="#EA0A8C" fill-rule="nonzero"/>
  </g>
</svg>