<svg version="1" xmlns="http://www.w3.org/2000/svg" viewBox="0 0 1660 350">
  <path fill="#f4f4f4" d="M1145.4 55c-32.6 3.5-54.4 25.7-62 62.9-6.1 30.1-5 68.2 2.7 93.1a71.6 71.6 0 0 0 18.9 32c14.3 14.4 26.6 19.1 49.5 19.1 31 .1 50-11.3 63-37.6 9.6-19.5 13-39.5 12.2-71.7-.3-16.4-1-23.8-2.6-32.2-6.7-33.1-22.2-54-46.2-62.1a92.1 92.1 0 0 0-35.5-3.5zm23.2 37.2c8.6 4 14 12.2 17.7 26.5 2 8.1 2.2 11.1 2.1 39.3 0 24.6-.3 31.9-1.6 37.5a50 50 0 0 1-10.5 23.7c-5.8 6.1-11.2 8.2-21.7 8.2-10.2.1-16.1-2.6-22.3-10.2-8.2-10.1-11.3-26-11.3-58.2 0-46.7 7.3-65.5 26.9-69 6.5-1.2 15.6-.2 20.7 2.2zM1338 55.1c-46.6 4.1-78 35.2-84 83.4a221 221 0 0 0 1.5 50.5c8.2 37.4 29.7 61.6 62.1 69.9 17 4.3 40 4.5 56.2.5 7.4-1.9 18.9-6.3 22.7-8.8l2.5-1.6v-58h-31v34.8l-2.7.6c-28.2 5.5-52-5.2-63.1-28.4a82.5 82.5 0 0 1-7.9-35c-2.2-49.2 21.2-77.1 61.7-73.3l8.5.8.3 16.2.2 16.3h31V63.3l-9.2-3.1a126.6 126.6 0 0 0-48.8-5.1zM50.5 59.3c-.3.7-.4 12.5-.3 26.2l.3 25h21l.3-15.3.3-15.2H113l-.2 78.7-.3 78.8-15.8.3-15.8.3.3 10.2.3 10.2 43.3.3 43.2.2v-20.9l-15.7-.3-15.8-.3-.3-78.8L136 80h42v31h21V58h-74c-58.9 0-74.2.3-74.5 1.3zM826 68v10h24v20c0 11-.3 20-.7 20a128.3 128.3 0 0 0-43.7-4.1c-34.8 3.3-56.6 23-62.5 56.5-1.6 8.6-1.3 30 .4 39.8a69.3 69.3 0 0 0 10.4 29c10.6 15.7 25 22.2 49.6 22.3 11.1 0 14-.3 19.7-2.3a57.6 57.6 0 0 0 24-16.2c3.7-4.1 5.9-5.8 6.2-4.9.2.8 1 5.8 1.6 11.1l1.3 9.8H894v-19h-18.8l-.6-2.7c-2.1-10.1-2.6-28.6-2.6-100.1V58h-46v10zm12.8 67.5c12.1 3.8 11.2.8 11.2 37.9 0 35.5-.4 39-6.2 49.8-8 15.1-23.9 22-43.7 18.9-16.1-2.5-26.5-12.1-31.5-29-2.7-9.1-3.8-25.2-2.6-36 1.9-15.6 5.7-24.6 14.1-33 4.7-4.6 16.3-10 24-11.1 10-1.4 26.2-.2 34.7 2.5zm81.2 23V259h131v-82h-35v47h-57V58h-39v100.5zm506 0V259h39v-84h20.6l24.6 41.7 24.6 41.8 24.1.3c13.3.1 24.1.1 24.1-.2 0-.2-14.2-23.4-31.5-51.7A3276.9 3276.9 0 0 1 1520 155c0-.3 12.6-22.1 28-48.5l28-48-21.7-.3c-16.5-.2-22 .1-22.9 1-.7.7-11.2 19.2-23.4 41l-22.2 39.8H1465V58h-39v100.5zM460.7 113a65.3 65.3 0 0 0-48.2 28c-8.2 12.4-11.8 26.2-11.8 46 0 21.1 3.5 34.4 12.7 47.9a60.9 60.9 0 0 0 35.6 24.7c5.1 1.5 9.9 1.8 22.5 1.8a84 84 0 0 0 25.5-2.6c5.2-1.4 12.7-4 16.5-5.7 7.3-3.3 19.5-11 19.5-12.4 0-1.3-6.9-14.5-8-15.2-.5-.3-2.5.5-4.3 1.9a73.6 73.6 0 0 1-10.8 6c-32.3 14.8-64.7 9.8-78.8-12.3a61.2 61.2 0 0 1-7.1-25.3V191l55.3-.2 55.2-.3-.1-12.5a79 79 0 0 0-7.4-36.5 49.8 49.8 0 0 0-19.9-21.8 91 91 0 0 0-46.4-6.7zm21.8 19.1c6 1.1 13.2 4.3 17.1 7.6a47.5 47.5 0 0 1 13.7 27.5l.6 3.8H425v-2.4c0-4.2 3.9-15 7.1-19.9 8.9-13.5 29.9-20.4 50.4-16.6zM641 113a57.5 57.5 0 0 0-22.6 8.9 63.3 63.3 0 0 0-16.1 15.6c-.7 1.1-1.4 1.7-1.7 1.4-.4-.3-1.2-5.6-1.8-11.8l-1.2-11.1H559v17.9l9.8.3 9.7.3.8 5.5c.4 3 1 31.1 1.3 62.3l.6 56.8 10.7-.3 10.6-.3.5-47 .5-47 3-5.5c4.8-8.7 14-17.4 23.1-21.7 7.6-3.6 8.3-3.8 17.9-3.7 12 .1 18.5 2.4 24.1 8.6 9.2 10.2 10.4 18.6 10.4 73.4V259h22.1l-.4-52.3c-.3-46.1-.6-53-2.2-59.2-4.6-18.3-14.1-28.8-29.6-32.8-7.1-1.9-23.9-2.8-30.9-1.7zm-315.5 1a69.7 69.7 0 0 0-24.4 11.1 76.7 76.7 0 0 0-10.1 7.4c-2.2 2.7-3.7 1.6-4.9-3.8-.6-3-1.6-7-2.2-9l-1-3.7H230v19h38v105h-38v19h115v-19l-27.2-.2-27.3-.3-.3-42.3-.2-42.3 4.6-5a51.8 51.8 0 0 1 36.7-17c5.3-.1 7.6.4 9.6 1.8 4.6 3.3 7 9.8 8.3 22.1l1.1 11.2h9.4c7.4 0 9.5-.3 9.9-1.5 1.1-2.7-1.5-27-3.5-33.6-2.7-8.4-6.1-13.2-11.8-16.6-4.3-2.5-5.9-2.8-14.8-3-5.5-.1-11.8.2-14 .7z"/>
</svg>