<svg viewBox="0 0 1600 500" xmlns="http://www.w3.org/2000/svg">
  <defs>

  	<filter id="sofGlow" height="300%" width="300%" x="-75%" y="-75%">
  		<!-- Thicken out the original shape -->
  		<feMorphology operator="dilate" radius="8" in="SourceAlpha" result="thicken" />

  		<!-- Use a gaussian blur to create the soft blurriness of the glow -->
  		<feGaussianBlur in="thicken" stdDeviation="10" result="blurred" />

  		<!-- Change the colour -->
  		<feFlood flood-color="#FF0099" result="glowColor" />

  		<!-- Color in the glows -->
  		<feComposite in="glowColor" in2="blurred" operator="in" result="softGlow_colored" />

  		<!--	Layer the effects together -->
  		<feMerge>
  			<feMergeNode in="softGlow_colored"/>
  			<feMergeNode in="SourceGraphic"/>
  		</feMerge>

  	</filter>

  </defs>

  <g fill="#F4F4F4" fill-rule="evenodd" filter="url(#sofGlow)">
    <path d="M435 350.1c-1.7-.6-3.5-1.1-5.4-1.5-2-.3-4.4-.5-7.2-.5-4 0-7.8.7-11.6 2.2a25.7 25.7 0 0 0-10 7c-3 3.3-5.3 7.6-7.1 12.9a61.5 61.5 0 0 0-2.7 19.4c0 7 .8 13 2.4 18.1 1.6 5.2 3.8 9.5 6.6 13a27 27 0 0 0 10.3 7.8 35.6 35.6 0 0 0 26.3.1v-14.4h10.6v19.5l.1.3c-2.8 2.2-6.5 4-11 5.5a50.9 50.9 0 0 1-32.8-.9 35 35 0 0 1-13.3-9.4 43.9 43.9 0 0 1-8.7-16.2 77.6 77.6 0 0 1-3.1-23.4 73 73 0 0 1 3.4-24c2.3-6.6 5.4-12 9.4-16.1 4-4.2 8.5-7.2 13.7-9.1 5.3-2 10.9-3 16.8-3a86.8 86.8 0 0 1 14.8 1.4 25.4 25.4 0 0 1 8.9 4h.2v22.8H435V350zm28.6 53.9c0-11.6 3-20.8 9-27.6a33.5 33.5 0 0 1 26-10.1c6 0 11.3 1 15.6 3a30.7 30.7 0 0 1 17.3 19.9 51 51 0 0 1 2 14.8c0 5.8-.7 11-2.2 15.6a30 30 0 0 1-17.8 19.4 39.3 39.3 0 0 1-14.9 2.7c-6 0-11.1-1-15.6-3a30.5 30.5 0 0 1-17.3-19.9 51 51 0 0 1-2-14.8zm12 0c0 3.4.4 6.7 1.2 10 .8 3.4 2.1 6.5 4 9.2 1.8 2.6 4.1 4.8 7 6.4 3 1.7 6.6 2.5 10.8 2.5 7.7 0 13.5-2.4 17.4-7.1a33.3 33.3 0 0 0 5.8-21c0-3.5-.4-6.8-1.2-10.2-.9-3.3-2.2-6.3-4-9a21 21 0 0 0-18-8.9c-7.7 0-13.4 2.4-17.3 7-3.8 4.8-5.7 11.8-5.7 21.1zm79.6-10.8a102.5 102.5 0 0 0-1.2-15.8h-9.6V368h19.3l1.3 11.7h.7a24 24 0 0 1 3.8-4.9 30 30 0 0 1 20.8-8.5c4.4 0 8.4.5 11.8 1.4 3.4 1 6.2 2.7 8.5 5.1a23 23 0 0 1 5 10 58 58 0 0 1 1.8 15.9V440h-11.2v-39.2c0-8-1.3-14-4-18-2.5-4-7.2-6-14-6-2.5 0-5 .5-7.3 1.5a25.1 25.1 0 0 0-11.5 9.6 23.9 23.9 0 0 0-3.1 6.9V440h-11.1v-46.8zm136 27.4c0-3.1-1.1-5.5-3.5-7.2-2.4-1.6-5.4-3-9-4-3.5-1-7.4-2-11.5-2.8-4.2-.9-8-2-11.6-3.5a26 26 0 0 1-9-5.8A14 14 0 0 1 643 387a17.6 17.6 0 0 1 8.7-15.8c2.6-1.6 5.6-2.9 9-3.7a53.2 53.2 0 0 1 39.7 6.6l-4.5 9c-3.2-1.7-6.6-3.4-10.3-5a35.4 35.4 0 0 0-25.8.3c-1.7.8-3 2-4 3.4a8.5 8.5 0 0 0-1.5 5c0 2.6 1.2 4.5 3.6 5.8 2.4 1.4 5.3 2.5 8.9 3.4 3.5 1 7.4 1.8 11.6 2.6 4.2.8 8 2 11.6 3.5a26 26 0 0 1 8.9 6.2c2.4 2.6 3.6 6.1 3.6 10.5 0 6.7-2.6 12.1-7.8 16.4-5.3 4.4-13.1 6.5-23.6 6.5a50.7 50.7 0 0 1-18-3.1 52 52 0 0 1-12.8-7l5.8-9.3a43.5 43.5 0 0 0 26.4 10c2.5 0 5-.3 7.2-.7 2.2-.5 4.2-1.1 6-2 1.7-1 3-2.2 4-3.6 1-1.5 1.6-3.3 1.6-5.4zM767 368h20.4v49.1c0 4.7.3 9.2.9 13.5h9.6v9.4h-19.1l-.5-12.2h-.5a27.6 27.6 0 0 1-25 14 37 37 0 0 1-11.2-1.6 16 16 0 0 1-7.7-5.2c-2-2.5-3.6-5.9-4.5-10a69 69 0 0 1-1.5-15.7v-31.7h-9.6V368h20.9v39c0 4 .1 7.5.5 10.6.3 3.1 1 5.8 2 8 1.1 2 2.7 3.7 4.8 4.8 2 1.1 4.8 1.7 8.2 1.7 5 0 9.4-1.7 13-5 3.8-3.2 6.6-7.3 8.5-12.2v-37.3H767V368zm51.2-28.8h24v76.6c0 5.9 1 10 2.9 12.4 2 2.4 4.9 3.6 8.7 3.6a21 21 0 0 0 7.7-1.4 34 34 0 0 0 8.1-5l5.2 8a31.9 31.9 0 0 1-10.6 6.2A37.1 37.1 0 0 1 853 442c-3.6 0-6.7-.5-9.5-1.4-2.8-1-5.1-2.4-7-4.4-1.9-2-3.3-4.7-4.3-8s-1.4-7.4-1.4-12.3v-67h-12.7v-9.6zM892 368h17v-14.3l11.2-3.1V368h38.5v9.6h-38.5v34c0 7 1.7 12.2 5.1 15.6 3.5 3.3 8.3 5 14.7 5 4.3 0 8-.8 11.3-2.4a61 61 0 0 0 8.7-5.4l3.7 8.5a43 43 0 0 1-26.4 9 35 35 0 0 1-10.8-1.7 24.5 24.5 0 0 1-15.2-14 32.7 32.7 0 0 1-2.3-12.8v-35.8h-17.1V368zm97 72v-9.6h25v-52.8h-25V368h36.6v62.4h24.5v9.6h-61zm21.2-92.4c0-2.6.9-4.9 2.6-6.7 1.7-2 4-2.9 6.6-2.9 2.8 0 5.1 1 7 2.9a9.1 9.1 0 0 1 2.8 6.7c0 2.4-1 4.6-2.8 6.3a10 10 0 0 1-7 2.6 9 9 0 0 1-6.6-2.6 8.6 8.6 0 0 1-2.6-6.3zm63.5 45.6a102.5 102.5 0 0 0-1.2-15.8h-9.6V368h19.3l1.3 11.7h.7a24 24 0 0 1 3.8-4.9 30 30 0 0 1 20.8-8.5c4.4 0 8.4.5 11.8 1.4 3.4 1 6.2 2.7 8.5 5.1a23 23 0 0 1 5 10 58 58 0 0 1 1.8 15.9V440h-11.2v-39.2c0-8-1.3-14-4-18-2.5-4-7.2-6-14-6-2.5 0-5 .5-7.3 1.5a25.1 25.1 0 0 0-11.5 9.6 23.9 23.9 0 0 0-3.1 6.9V440h-11.1v-46.8zm148.5 50.4a26 26 0 0 1-2.6 11.9 23.3 23.3 0 0 1-7.2 8.4 32 32 0 0 1-10.5 5 56.7 56.7 0 0 1-28 0 44.1 44.1 0 0 1-11-4.6l5.5-10.2c1 .8 2 1.5 3.4 2.2a35.7 35.7 0 0 0 10.7 3.6 41.2 41.2 0 0 0 16.7-.6c2.8-.8 5.1-2 6.8-3.6a14 14 0 0 0 3.8-6.3 37 37 0 0 0 1.1-9.5v-8.1h-.6c-2.2 3.2-5 5.6-8.4 7.3a30 30 0 0 1-13.4 2.6c-11 0-19-3-24.2-9.1-5.1-6.1-7.7-15.6-7.7-28.5 0-12.2 3.3-21.5 9.8-27.8 6.6-6.3 16.3-9.5 29.1-9.5a80.6 80.6 0 0 1 26.7 4.4v72.4zm-32.2-11.5a20 20 0 0 0 13.9-4.6 25 25 0 0 0 7-13.9v-34a42 42 0 0 0-17.7-3.1c-7.7 0-13.7 2.3-18.1 6.8-4.4 4.5-6.7 11.4-6.7 20.7 0 4.1.4 7.9 1.2 11.3.8 3.4 2 6.4 3.7 8.9 1.6 2.5 3.9 4.4 6.6 5.8a22 22 0 0 0 10.1 2z"/>
    <path d="M1129.4 33c-32.6 3.5-54.4 25.7-62 62.9-6.1 30.1-5 68.2 2.7 93.1a71.6 71.6 0 0 0 18.9 32c14.3 14.4 26.6 19.1 49.5 19.1 31 .1 50-11.3 63-37.6 9.6-19.5 13-39.5 12.2-71.7-.3-16.4-1-23.8-2.6-32.2-6.7-33.1-22.2-54-46.2-62.1a92.1 92.1 0 0 0-35.5-3.5zm23.2 37.2c8.6 4 14 12.2 17.7 26.5 2 8.1 2.2 11.1 2.1 39.3 0 24.6-.3 31.9-1.6 37.5a50 50 0 0 1-10.5 23.7c-5.8 6.1-11.2 8.2-21.7 8.2-10.2.1-16.1-2.6-22.3-10.2-8.2-10.1-11.3-26-11.3-58.2 0-46.7 7.3-65.5 26.9-69 6.5-1.2 15.6-.2 20.7 2.2zM1322 33.1c-46.6 4.1-78 35.2-84 83.4a221 221 0 0 0 1.5 50.5c8.2 37.4 29.7 61.6 62.1 69.9 17 4.3 40 4.5 56.2.5 7.4-1.9 18.9-6.3 22.7-8.8l2.5-1.6v-58h-31v34.8l-2.7.6c-28.2 5.5-52-5.2-63.1-28.4a82.5 82.5 0 0 1-7.9-35c-2.2-49.2 21.2-77.1 61.7-73.3l8.5.8.3 16.2.2 16.3h31V41.3l-9.2-3.1a126.6 126.6 0 0 0-48.8-5.1zM34.5 37.3c-.3.7-.4 12.5-.3 26.2l.3 25h21l.3-15.3.3-15.2H97l-.2 78.7-.3 78.8-15.8.3-15.8.3.3 10.2.3 10.2 43.3.3 43.2.2v-20.9l-15.7-.3-15.8-.3-.3-78.8L120 58h42v31h21V36h-74c-58.9 0-74.2.3-74.5 1.3zM810 46v10h24v20c0 11-.3 20-.7 20-14.2-3.9-29-5.3-43.7-4.1-34.8 3.3-56.6 23-62.5 56.5-1.6 8.6-1.3 30 .4 39.8a69.3 69.3 0 0 0 10.4 29c10.6 15.7 25 22.2 49.6 22.3 11.1 0 14-.3 19.7-2.3a57.6 57.6 0 0 0 24-16.2c3.7-4.1 5.9-5.8 6.2-4.9.2.8 1 5.8 1.6 11.1l1.3 9.8H878v-19h-18.8l-.6-2.7c-2.1-10.1-2.6-28.6-2.6-100.1V36h-46v10zm12.8 67.5c12.1 3.8 11.2.8 11.2 37.9 0 35.5-.4 39-6.2 49.8-8 15.1-23.9 22-43.7 18.9-16.1-2.5-26.5-12.1-31.5-29-2.7-9.1-3.8-25.2-2.6-36 1.9-15.6 5.7-24.6 14.1-33 4.7-4.6 16.3-10 24-11.1 10-1.4 26.2-.2 34.7 2.5zm81.2 23V237h131v-82h-35v47h-57V36h-39v100.5zm506 0V237h39v-84h20.6l24.6 41.7 24.6 41.8 24.1.3c13.3.1 24.1.1 24.1-.2 0-.2-14.2-23.4-31.5-51.7A3276.9 3276.9 0 0 1 1504 133c0-.3 12.6-22.1 28-48.5l28-48-21.7-.3c-16.5-.2-22 .1-22.9 1-.7.7-11.2 19.2-23.4 41l-22.2 39.8H1449V36h-39v100.5zM444.7 91a65.3 65.3 0 0 0-48.2 28c-8.2 12.4-11.8 26.2-11.8 46 0 21.1 3.5 34.4 12.7 47.9a60.9 60.9 0 0 0 35.6 24.7c5.1 1.5 9.9 1.8 22.5 1.8a84 84 0 0 0 25.5-2.6c5.2-1.4 12.7-4 16.5-5.7 7.3-3.3 19.5-11 19.5-12.4 0-1.3-6.9-14.5-8-15.2-.5-.3-2.5.5-4.3 1.9a71 71 0 0 1-10.8 6c-32.3 14.8-64.7 9.8-78.8-12.3a61.2 61.2 0 0 1-7.1-25.3V169l55.3-.2 55.2-.3-.1-12.5a79 79 0 0 0-7.4-36.5 49.8 49.8 0 0 0-19.9-21.8 91 91 0 0 0-46.4-6.7zm21.8 19.1c6 1.1 13.2 4.3 17.1 7.6 7.5 7.4 12.3 17 13.7 27.5l.6 3.8H409v-2.4c0-4.2 3.9-15 7.1-19.9 8.9-13.5 29.9-20.4 50.4-16.6zM625 91c-8 1.3-15.8 4.4-22.6 8.9a63.3 63.3 0 0 0-16.1 15.6c-.7 1.1-1.4 1.7-1.7 1.4-.4-.3-1.2-5.6-1.8-11.8L581.6 94H543v17.9l9.8.3 9.7.3.8 5.5c.4 3 1 31.1 1.3 62.3l.6 56.8 10.7-.3 10.6-.3.5-47 .5-47 3-5.5c4.8-8.7 14-17.4 23.1-21.7 7.6-3.6 8.3-3.8 17.9-3.7 12 .1 18.5 2.4 24.1 8.6 9.2 10.2 10.4 18.6 10.4 73.4V237h22.1l-.4-52.3c-.3-46.1-.6-53-2.2-59.2-4.6-18.3-14.1-28.8-29.6-32.8-7.1-1.9-23.9-2.8-30.9-1.7zm-315.5 1c-8.8 2-17 5.9-24.4 11.1-3.6 2.2-7 4.7-10.1 7.4-2.2 2.7-3.7 1.6-4.9-3.8-.6-3-1.6-7-2.2-9l-1-3.7H214v19h38v105h-38v19h115v-19l-27.2-.2-27.3-.3-.3-42.3-.2-42.3 4.6-5a51.8 51.8 0 0 1 36.7-17c5.3-.1 7.6.4 9.6 1.8 4.6 3.3 7 9.8 8.3 22.1l1.1 11.2h9.4c7.4 0 9.5-.3 9.9-1.5 1.1-2.7-1.5-27-3.5-33.6-2.7-8.4-6.1-13.2-11.8-16.6-4.3-2.5-5.9-2.8-14.8-3-5.5-.1-11.8.2-14 .7z" fill-rule="nonzero"/>
  </g>
</svg>