<svg id="Layer_1" xmlns="http://www.w3.org/2000/svg" viewBox="0 0 566.9 566.9">
  <style>
    .st3{fill:#e93895}.st5{font-size:87.1366px}
  </style>
  <path d="M453.4 566.9H113.5A113.9 113.9 0 0 1 0 453.4V113.5C0 51.1 51.1 0 113.5 0h339.9c62.4 0 113.5 51.1 113.5 113.5v339.9c0 62.4-51.1 113.5-113.5 113.5z" fill="#010101"/>
  <path d="M340.3 281.7c18 23.3 47 38.5 79.7 38.5 54.6 0 98.9-42.3 98.9-94.4s-44.3-94.4-98.9-94.4c-32.7 0-61.7 15.1-79.7 38.5L48 121.5v208.6l292.3-48.4z" fill="#fff"/>
  <path fill="none" d="M45.3 360.4h476.4v145.2H45.3z"/>
  <text transform="translate(45.3 421.4)">
    <tspan x="0" y="0" class="st3 st5" font-family="PTMono-Regular">Trend</tspan><tspan x="261.4" y="0" class="st3 st5" font-family="PTMono-Bold">LOCK</tspan>
  </text>
  <path d="M422.2 211.6v-7m0 39.7V237m14.3 1.4l-5.1-5.1m3.7-8.8h7m-10.7-9.2l4.8-4.8m-23.9 4.8l-4.9-4.8m.6 28l5.2-5.2" fill="none" stroke="#e93895" stroke-width="3" stroke-linecap="round" stroke-linejoin="round" stroke-miterlimit="10"/>
  <radialGradient id="SVGID_1_" cx="422.2" cy="224.5" r="8.8" gradientUnits="userSpaceOnUse">
    <stop offset=".2" stop-color="#fff"/>
    <stop offset=".3" stop-color="#fefbfd"/>
    <stop offset=".4" stop-color="#faeef5"/>
    <stop offset=".5" stop-color="#f4dae9"/>
    <stop offset=".6" stop-color="#ebbdd8"/>
    <stop offset=".6" stop-color="#e7afd0"/>
    <stop offset=".7" stop-color="#e793bf"/>
    <stop offset=".8" stop-color="#e86aa8"/>
    <stop offset=".9" stop-color="#e8499a"/>
    <stop offset="1" stop-color="#e93895"/>
  </radialGradient>
  <circle cx="422.2" cy="224.5" r="8.8" fill="url(#SVGID_1_)"/>
  <path class="st3" d="M108.6 134.5c-2.3.7-1.2 3.8-1.6 5.2-1.5 5.6-.4 11.8-1.2 17.5-1.8 14-1.1 28.3-3 42.3-.5 3.9-1.8 7.7-2.5 11.6-.7 3.9-2 7.7-2.5 11.6-.2 1.4.1 4.3-.8 5.5-.2.2-.4-1.4-.4-1.6 0-1.9-.5-3.8-.5-5.7 0-5.4-.8-11-1.5-16.4-.3-2.4.4-5.4-.6-7.7-.5-1.3-3.3-1.9-4.5-.7-1 .9-.7 2.6-.8 3.7l-1 7.5-3 21.7c-.3 2.5 0 5.1-.7 7.5-.7 2.7-.6 6.1-.6 8.8 0 .3.1 2.8-.2 2.8l-.1-1.1-.2-3.5c0-5-.5-10.1-.5-15.1 0-7.3.2-15-.7-22.3-.6-4.9.2-10-.5-14.9-.7-5.1.4-10.3-.2-15.4-.6-4.8.1-9.7-.5-14.5-.2-1.5-2.3-2.8-4.2-1.8-1.3.7-.9 1.7-1 2.7-.1 1.7 0 3.5-.2 5.1-1 7.3 0 14.8-1 22.1-.7 5.6 0 11.3-.7 16.9-1.9 14.7-1 29.6-2.2 44.3-.5 5.5-.3 11-1 16.5-.4 2.8.1 5.7-.7 8.5-.7 2.8-.2 5.7-.6 8.5-.7 5.3-1.4 10.8-1.5 16.2 0 2-.5 3.9-.5 5.9 0 .2.1 1.8-.2 1.8-.2 0-.1-1.7-.1-1.8 0-2 0-4-.2-6.1-.3-2.4.3-4.9 0-7.4-.8-6.1-.7-12.5-.7-18.6 0-31.3-2.7-62.5-2.7-93.8 0-7.4-.2-14.7-.5-22.1-.1-1.8.7-6.5-2.7-6.6-1.5-.1-2.6.8-2.7 1.8-.5 3.1-1.3 6.3-1.7 9.4a601.5 601.5 0 0 1-5.5 32.2c-.6 2.8-1.2 5.8-1.4 8.6 0 .6-.7 2.2-.1 2.7.5.4 4.6.6 4.9.1.9-1.6.7-4.2.9-5.9.7-5.2 1.5-10.5 2.5-15.6.3-1.6.4-3.3.8-5l.3-1.5.3 3.1.2 10.1c0 14.4 1.2 28.8 1.2 43.2 0 21 1.7 42 1.7 63.1 0 3.4-.7 8.2.6 11.4.5 1.3 1.8 2.6 2.6 3.9.8 1.2 1.7 3.9 3.8 4 3.5.3 2.9-1.9 3.3-3.7.8-3.9 0-8.1 1-12 1.4-5.5.7-11.5 1.4-17.1 1.6-12 2-24.2 2.7-36.2.2-5 .5-9.9.5-14.9l.2-3.5c0-.1-.1-1.1.2-1.1l.1.9v3.1c0 4.3.5 8.7.5 13.1 0 15.7 1.5 31.4 1.5 47.1 0 4-.3 8.2.2 12.1.2 1.2 1.6 2.1 3.2 1.8 2.5-.5 2.2-3.2 2.2-4.7 0-4.7.1-9.7.7-14.3 1.2-9.4.5-18.9 1.7-28.3a166 166 0 0 0 1.5-22.3c0-4 1.2-8 1.2-12 0-.9.2-1.9.4-2.8l.2-.9.1.9.2 3.1c0 4.1.2 8.2.9 12.2.7 3.9-.1 8.7 1.3 12.6.6 1.7 4.1 2 4.9.2.7-1.5.6-3.4.8-5l1.7-10.8c1.5-11.1 3.7-22.4 6.6-33.5.9-3.5.8-7.8.8-11.4 0-.3.2-3.5.4-3.5l.1 1.1v3.3c0 4.7.5 9.4.5 14.2 0 16.9 1.7 33.8 1.7 50.8 0 3.9.5 7.9.5 11.8 0 1.5-.3 3.5 2.5 3.6 2.9.1 2.8-2.4 3-3.8.6-4.5.7-9 1.2-13.4 1.3-9.9 1.9-19.8 3.2-29.6.5-3.5 0-7 .5-10.5.7-5.7 1.2-11.6 1.2-17.3 0-5.2.3-10.8 1-16 .2-1.3.1-2.6.4-3.9 0-.1 0-1.1.2-1.1l.2 1.1c.3 1.3.3 2.6.3 3.9 0 5.2.3 10.8 1 16 1.7 12.7 1.1 25.6 2.7 38.2.7 5.4.3 10.7 1.7 16l2.9 12.3c.3 1.2.1 3.7 2.1 4.2 1.9.5 3.5-.4 3.7-1.8.5-3.6.5-7.3 1.2-10.8.7-3.4.6-7 1-10.5l2.5-20.8 1.2-8.8c.1-.8-.2-2.3.3-3.1.1-.1.4.9.4 1 .1 1.1.1 2.2.4 3.3.7 2.6.7 5.5 1.1 8.1.1 1.1-.1 2.5.6 3.5 1 1.7 3.8 1.2 4.8-.2 1.5-2.1 3.4-4.4 4.4-6.6.9-2 .6-4.4.8-6.4l2.2-18c.3-2.5.9-5 1-7.5 0-.2.2-2.4.4-2.4l.3 3.5c.1 3.7-.4 8.1.6 11.8 1.4 5.2.2 10.9.9 16.2.7 5.4.2 10.9 1 16.4.4 3.1.7 6.3.7 9.4 0 3.6.5 7.1.5 10.7 0 1.1-.1 3.2 1.5 3.8 1.7.7 3.5-.1 3.9-1.4.9-2.8.9-6.1 1.3-9l3.2-22.3c.7-5.6.7-11.3 1.5-16.9.5-3.6.3-7.3 1-10.8.1-.4.1-3.3.6-3.3l.2 1.3c.3 1.1.1 3.2 1.3 4 1.5 1 3.4.5 4.3-.7.1-.1.7-1.1.9-.9.7.7.4 3.1.6 4 .8 4 1.1 8 2.1 12 .3 1.3-.1 3.6 1.3 4.6 3.7 2.6 6.2-3.9 7.2-5.5.2-.3 1.6-2.3 1.7-1.8.9 3.2.6 6.7 1 9.9l2.5 21.1c.2 1.8-.2 4 .6 5.7.5 1.2 2.3 2.5 3.4 3.5.7.7 1.5 1.8 2.7 2.1 2.9.8 3.5-1.5 3.7-3.1.7-5.1 1-10.3 1.2-15.4l.2-4.4c0-.1-.1-1.3.2-1.3.3 0 .3 1.3.3 1.5 0 1.6 0 3.2.2 4.8.8 6.5.6 13 1.5 19.5.2 1.9 3.5 2.5 4.9.9.7-.8.6-2.5.6-3.5 0-2 .2-4.1.5-6.1 1.2-9.7 1.7-19.5 3-29.2l.7-7.7c.1-1.1-.2-2.5.8-3.4l.7 2.3c.3 2.6.9 5.1 1.2 7.7.8 6.1 2.3 11.9 4.1 17.8.6 2.1.8 4.5 1.9 6.4.8 1.5 3.4 1.9 4.6 3.1.9 1 1 3.1 1.3 4.2.9 3.7 1.4 8.1 3.3 11.6.5 1 2.1 1.4 3.4 1 2.3-.6 2-4 2-5.5 0-2.8.6-5.7 1-8.5.3-2.3.1-4.7.7-7 .4-1.5.2-3.1.5-4.6 0-.2-.1-1.5.2-1.5l.3 1.7c.4 1.7.3 3.7 1 5.3.7 1.6 4.1 1.9 4.9.2.8-1.6.8-3.7 1.1-5.3.5-3.3 1.4-6.6 2-9.9.2-1.2.6-2.4.7-3.7 0-.2.1-1.1.4-1.1.2 0 .3 1.1.4 1.3.3 1.3.4 2.6.8 3.9 1.2 4.4 1.6 9 2.8 13.4.3 1.4 0 4 2.6 4.2 2.8.2 3-1.6 3.6-3.1 1.2-3.5 2-7 3.2-10.5.4-1.2.6-2.2 1.4-3.3.1-.2.4-.9.8-.9s.7 1.4.8 1.7c.7 1.6 1 4.4 2.5 5.7a14 14 0 0 0 7.1 1.4c.6-.1 2.2-1.2 2.6-1 .6.3.8 1.7.9 2.1.7 1.8 1.9 7.5 5.1 7.3 2.2-.1 2.8-2.1 3.5-3.3 2-3.5 3.8-7 5.5-10.7l1.6-3.7c.1-.2.3-.9.8-.9.7 0 1.3 2.5 1.4 2.9.8 2.1 1.4 4.3 2.3 6.4.3.8.5 1.8 1.5 2.4 3.7 2.1 4.7-3 5.4-4.6l.7-1.8c.3 0 1.3 3 1.4 3.3.9 2.1 2.2 3.1 4 4.8.9.8 2 2 3.6 2 3.5.1 3.6-5.5 4.3-7.4.1-.3.6-2.8.9-2.8.2 0 .6 1.5.7 1.7.6 1.6 1.3 4.2 4.4 3.4 2.4-.6 3.3-5.1 4-6.7.2-.6.6-2.1 1.4-2.3 1-.2 1.8 1.1 2.2 1.5 1.2 1.3 2.7 4.2 5.2 4 2.4-.1 3.2-2.3 5.2-2.8 1.7-.4 3.4.9 5.2 0 .6-.3 1.9-2.5 2.4-2.5.2 0 .9 2.2 1 2.4.7 1.9 1.3 5.6 4.7 5.3 2.1-.2 2.5-2.3 3.2-3.5.1-.2.6-1.5 1-1.5s.9 1.4 1.1 1.7c.7 1.1 1.2 2.5 3.2 2.7 1.7.1 3.6-1 5.2-1.3 1.6-.3 3.4.2 5-.1 1.6-.4 2.9-1.4 4.5-1.7 1.3-.3 2.9.1 4.2-.1 1.8-.3 3.2-1.3 5-1.7 1.5-.3 3.2 0 4.7-.3.7-.1 1.5-.5 2.2-.7.7-.2 1.2-.9 1.2-1.6v-.3c0-1.3-1.3-2.3-2.5-1.8l-2.6.8c-1.4.2-2.8-.1-4.2.1-1.7.3-3.1 1.3-4.7 1.7-1.7.4-3.5-.2-5.2.3-1.3.4-2.4 1.2-3.7 1.5-1.4.3-3-.1-4.5.1-.8.1-2 .8-2.7.6-.8-.2-1-1.2-1.3-1.7-.8-1.5-2-5-4.6-5.1-2.1-.1-2.9 1.6-3.5 2.8-.1.3-.6 1.5-1 1.5-.3 0-.8-1.6-.9-1.8-.7-1.5-1-4.6-3.8-4.8-3.9-.2-3.5 4.8-6.2 5.5-1.2.3-2.7-.5-3.9-.2-1 .2-2.3 1.8-3.1 1.8-.7 0-2.4-2.7-2.9-3.1a12.8 12.8 0 0 0-7.1-2c-2.2.2-2.6 2.2-3.1 3.5-.1.3-.5 1.7-.9 1.7-.3 0-.9-2-.9-2.2-.7-1.8-1.1-4.6-4.4-4.2-1.6.2-1.9 1.4-2.2 2.4l-2.2 7.7c-.1.4-.6 3.3-1.1 3.3-1 0-1.5-2.4-1.7-2.9l-2.7-6.8c-.4-.8-.5-1.9-1.5-2.5-3.6-2.1-4.8 2.6-5.4 4.2-.1.2-.5 1.8-.7 1.8-.2 0-.7-1.8-.7-2-.7-1.6-.7-4.9-3.6-5.1-1.6-.1-5.8.6-6.9 1.5-.8.7-1 1.9-1.4 2.7l-2.6 5.9-1.9 3.9c-.1.2-.5 1.1-.9 1.1-.3 0-.8-1.4-.9-1.7-.6-1.4-.9-3.9-2.4-4.9-3.1-2-5.5 2.9-8.4 1.7-.9-.4-1-1.8-1.3-2.4-1-2.3-1.9-4.7-2.7-7-.5-1.4-2.1-3-4.4-2-1.1.5-1.5 1.6-2 2.4-1.5 2.1-3.2 4.1-4 6.4-.1.4-.7 3.3-1.1 3.3-.4 0-.3-.9-.3-1.1l-.7-3.5-1.2-5.5c-.2-.8-.1-1.9-.9-2.5-.8-.7-2.1-1.2-3.1-1.7-1.2-.6-2.5-1.5-4-1.2-3.2.6-2.9 6.1-3.3 8l-.6 2.8c-.3 0-.6-2.7-.6-2.9-.5-2.6-.7-5.5-1.5-8.1-.4-1.2-2.1-1.8-3.6-1.3-2.3.8-2 4.8-2 6.4 0 3.6-.8 7.4-1.2 11-.3 2.2-.1 4.6-.7 6.8-.4 1.6-.6 3.5-.6 5.1 0 .2.1 1.7-.2 1.7-.3 0-.8-2.7-.9-2.9-.7-1.4-3.1-1.9-4.4-2.9-.8-.6-1-2.1-1.2-2.9-1-3.8-2.4-7.5-3.4-11.2-1.7-6-2.3-12.5-3.1-18.6-.4-2.9-.6-5.9-1.4-8.8-.3-1.1-.1-2.4-2.1-2.6-3.6-.3-4 3.3-4.8 5.3-.8 2.2-2.1 4.4-2.8 6.6-1 3-1.1 6.9-1.1 9.9 0 1.8-.5 3.6-.5 5.3 0 .2.2 1.7-.4 1.7-.2 0-.1-1.5-.1-1.7 0-1.8-.4-3.6-.5-5.3-.3-6-1.2-12-1.2-18 0-1.4.4-5.3-2.2-5.5-1.3-.1-2.7.1-3.1 1.1-1.1 2.3-.5 5.7-.8 8.1-1.4 10.4-1.1 20.9-2.5 31.3-.4 3-.4 6-.7 9 0 .3.2 2.8-.2 2.8l-.3-1.8c0-1.8-.1-3.9-.6-5.7-2.1-8-1-16.4-2.7-24.5-.5-2.1.5-8.2-2.9-8.8-2.6-.4-5.5 2.9-6.9 4.2-.2.2-1 1.5-1.2 1.5l-.3-1.1-.6-3.9c-1-3.9-1.3-8-2.1-12-.3-1.3.1-3.3-1.3-4.2-1.4-1-3.5-.5-4.2.7-.1.2-.6 1.3-.9 1.3l-.3-.9c-.2-1-.3-2.1-.6-3.1-.9-3.3-1.2-6.6-2.1-9.9-.3-1.3-.4-2.7-2.6-2.9-2-.2-2.5 1-2.8 2.1-.7 2.5-.1 5.2-.7 7.7-1.1 4.2-.6 8.8-1.2 13.1-.9 6.9-1.6 14-2 21-.2 3.2-.3 6.6-1.2 9.7-.1.3-.1 2.8-.5 2.8-.2 0-.1-2.3-.1-2.6-.1-2.8-.1-5.8-.5-8.6-.7-5.4-.3-10.9-1-16.4-.6-4.7-1-9.6-1-14.3a58 58 0 0 0-.5-7.2c-.1-1.1-.1-2.2-2-2.4-3.9-.3-7.6 3-7.9 5.5l-2.2 18c-.3 2.5-.3 5.1-.9 7.5-.6 2.3-.7 5-.8 7.4 0 .3-.2 2.2-.6 2.2-.2 0-.2-1.5-.2-1.7-.4-1.7-.6-3.5-.7-5.1-.4-6.5-1.6-13-2.5-19.5-.2-1.5-2-5.8-4.9-3.1-.9.8-.6 2.2-.8 3.1-.6 2.9-.8 5.9-1.2 8.8-1.5 11.2-4.2 22.6-4.5 33.8-.1 3.6-.8 7.3-1.2 10.8 0 .3-.1 3.3-.4 3.3l-.2-1.1c-.3-1.2-.8-2.5-.8-3.7-.3-5.4-1-10.8-1-16.2 0-4.4-.4-8.9-1-13.2-.6-4.9-.3-9.9-1-14.9-1.2-9.4-.3-18.8-2.4-28.1-1-4.3-2.2-8.6-3-12.9-.3-1.5-.4-3.9-3-4-2.7-.2-2.6 1.7-2.9 3.1-.7 3.4.3 7.1-.6 10.5-.9 3.6-.2 7.4-.7 11-1.5 11.4-1 22.9-2.5 34.2-.5 4.1-.5 8.2-.7 12.3l-.4 2.9-.2.9-.1-1.1v-3.9c0-5.4-.5-10.9-.5-16.4 0-7.5 0-15.4-1-22.8-.3-2.2.1-4.6 0-6.8-.5-9.5-.5-19.1-1-28.7-.3-4.6.1-9.4-.5-14 .2-1.6-.4-3.9-3.5-2.9"/>
</svg>