<svg xmlns="http://www.w3.org/2000/svg" viewBox="0 0 566.9 566.9">
  <path d="M453.6 566.9H113.3A113.6 113.6 0 0 1 0 453.6V113.3C0 51 51 0 113.3 0h340.4C516 0 566.9 51 566.9 113.3v340.4c0 62.3-50.9 113.2-113.3 113.2z" fill="#e93895"/>
  <path d="M341.7 340.6c18.4 23.8 48 39.3 81.4 39.3 55.8 0 101-43.2 101-96.4s-45.2-96.4-101-96.4c-33.4 0-63 15.5-81.4 39.3L43.1 177v213l298.6-49.4z" fill="#010101"/>
  <path d="M425 269.9v-7.2m0 40.6v-7.5m14.7 1.4l-5.3-5.2m3.8-8.9h7.1m-10.9-9.5l5-4.9m-24.5 4.9l-5-4.9m.6 28.6l5.3-5.3" fill="none" stroke="#fff" stroke-width="3" stroke-linecap="round" stroke-linejoin="round" stroke-miterlimit="10"/>
  <radialGradient id="a" cx="425.1" cy="284" r="8.9" gradientTransform="matrix(1 0 0 -1 0 567)" gradientUnits="userSpaceOnUse">
    <stop offset=".2" stop-color="#fff"/>
    <stop offset=".3" stop-color="#fffbfd"/>
    <stop offset=".4" stop-color="#fdeef5"/>
    <stop offset=".5" stop-color="#fbdae9"/>
    <stop offset=".6" stop-color="#f8bdd7"/>
    <stop offset=".7" stop-color="#f498c1"/>
    <stop offset=".7" stop-color="#f17db1"/>
    <stop offset=".8" stop-color="#ef73ac"/>
    <stop offset=".8" stop-color="#eb5da2"/>
    <stop offset=".9" stop-color="#e84b9b"/>
    <stop offset=".9" stop-color="#e73f96"/>
    <stop offset="1" stop-color="#e73b95"/>
  </radialGradient>
  <circle cx="425" cy="283.1" r="8.9" fill="url(#a)"/>
  <path d="M104.7 191c-2.4.7-1.3 3.9-1.6 5.4-1.5 5.8-.4 12-1.2 17.8-1.9 14.3-1.2 28.9-3 43.2-.5 4-1.8 7.9-2.5 11.8-.8 3.9-2 7.9-2.5 11.8-.2 1.4.2 4.4-.8 5.6-.2.3-.4-1.4-.4-1.6 0-1.9-.5-3.9-.5-5.8 0-5.5-.8-11.2-1.5-16.7-.3-2.4.4-5.5-.6-7.9-.5-1.3-3.4-1.9-4.6-.8-1 1-.7 2.6-.8 3.8l-1 7.7-3 22.2c-.3 2.5 0 5.3-.7 7.7-.7 2.8-.6 6.2-.6 9 0 .3.1 2.8-.2 2.8-.2 0-.1-1-.1-1.1l-.3-3.6c0-5.1-.5-10.3-.5-15.4 0-7.5.2-15.3-.8-22.7-.7-5 .2-10.2-.5-15.2-.7-5.2.4-10.6-.3-15.8-.6-4.9.1-9.9-.5-14.8-.2-1.5-2.3-2.8-4.3-1.8-1.3.7-1 1.7-1 2.8-.1 1.7 0 3.6-.3 5.3-1 7.5 0 15.1-1 22.5-.8 5.7 0 11.6-.8 17.3-2 15-1 30.2-2.3 45.3-.5 5.7-.3 11.3-1 16.9-.4 2.8.1 5.8-.7 8.6-.7 2.8-.2 5.8-.6 8.6-.7 5.4-1.4 11.1-1.5 16.5 0 2-.5 4-.5 6 0 .2.1 1.9-.2 1.9-.2 0-.1-1.7-.1-1.9 0-2.1 0-4.1-.3-6.2-.3-2.5.3-5 0-7.5-.8-6.2-.8-12.7-.8-19 0-31.9-2.8-63.9-2.8-95.8 0-7.5-.3-15-.5-22.5-.1-1.9.8-6.6-2.8-6.8-1.5-.1-2.6.8-2.8 1.9l-1.8 9.6c-1.6 10.9-3.4 22-5.6 32.9-.6 2.9-1.3 5.9-1.5 8.8 0 .6-.8 2.3-.1 2.7.6.4 4.7.6 5 .1.9-1.6.7-4.2.9-6a222 222 0 0 1 2.6-16c.3-1.7.4-3.4.8-5.1l.3-1.5.3 3.2c0 3.5.3 6.9.3 10.3 0 14.7 1.3 29.4 1.3 44.1 0 21.5 1.8 42.9 1.8 64.4 0 3.4-.8 8.4.6 11.6.6 1.4 1.8 2.7 2.7 3.9.8 1.2 1.8 4 3.8 4.1 3.5.3 3-2 3.3-3.8.8-4 0-8.3 1.1-12.2 1.5-5.6.7-11.7 1.4-17.5 1.6-12.3 2.1-24.7 2.8-37 .3-5.1.5-10.1.5-15.2l.3-3.6c0-.1-.1-1.1.2-1.1l.1.9v3.2c0 4.4.5 8.9.5 13.3 0 16 1.5 32.1 1.5 48.1 0 4.1-.3 8.3.3 12.4.2 1.2 1.6 2.1 3.3 1.8 2.5-.5 2.3-3.3 2.3-4.8 0-4.8.1-9.9.8-14.7 1.3-9.6.5-19.3 1.8-28.9a173 173 0 0 0 1.5-22.7c0-4.1 1.2-8.1 1.3-12.2a13.5 13.5 0 0 1 .7-3.7l.1.9c0 1.7.6 3.3-.1 5a9 9 0 0 0 .2 7.5c2.3 4.3.5 10.9 2.3 16 .6 1.8 4.1 2.1 5 .2.7-1.5.6-3.5.8-5.1l1.8-11.1c1.5-11.4 3.8-22.9 6.7-34.2.9-3.6.8-7.9.8-11.6 0-.3.2-3.6.4-3.6s.1 1 .1 1.1v3.4c0 4.8.5 9.6.5 14.5 0 17.3 1.8 34.6 1.8 51.8 0 4 .5 8 .5 12 0 1.5-.3 3.6 2.5 3.7 2.9.2 2.8-2.5 3-3.9.6-4.6.7-9.2 1.3-13.7 1.3-10.1 2-20.2 3.3-30.2.5-3.5 0-7.1.5-10.7.8-5.8 1.3-11.8 1.3-17.7 0-5.3.3-11 1-16.3.2-1.3.1-2.7.4-3.9 0-.1 0-1.1.3-1.1l.3 1.1c.3 1.3.3 2.6.3 3.9 0 5.3.3 11 1 16.3 1.7 13 1.1 26.1 2.8 39.1.7 5.5.3 10.9 1.7 16.3l3 12.6c.3 1.2.1 3.8 2.1 4.3 1.9.5 3.6-.4 3.8-1.8.5-3.7.5-7.4 1.2-11.1.7-3.5.6-7.1 1.1-10.7l2.5-21.2 1.3-9c.1-.9-.2-2.4.3-3.1.1-.1.4.9.4 1.1.1 1.1.1 2.3.4 3.4.7 2.7.7 5.6 1.1 8.3.1 1.1-.1 2.5.6 3.6 1 1.7 3.9 1.2 4.9-.2 1.5-2.1 3.4-4.5 4.5-6.8.9-2 .6-4.5.8-6.6l2.3-18.4c.3-2.6 1-5.1 1-7.7l.4-2.4.3 3.6c.1 3.8-.4 8.3.6 12 1.4 5.3.2 11.1.9 16.5.7 5.5.3 11.2 1 16.7.4 3.1.8 6.4.8 9.6 0 3.6.5 7.2.5 10.9 0 1.2-.1 3.3 1.5 3.9 1.8.7 3.5-.1 4-1.5.9-2.9 1-6.2 1.3-9.2 1-7.6 2.3-15.1 3.3-22.7.8-5.7.8-11.5 1.5-17.3.5-3.7.3-7.5 1.1-11.1.1-.4.1-3.4.6-3.4l.3 1.3c.3 1.2.1 3.3 1.3 4.1 1.5 1 3.5.5 4.3-.7.1-.1.7-1.1.9-.9.7.8.4 3.1.6 4.1.8 4 1.1 8.2 2.2 12.2.3 1.4-.1 3.6 1.3 4.7 3.8 2.7 6.3-4 7.4-5.6.2-.3 1.6-2.3 1.7-1.9.9 3.3.6 6.8 1 10.1l2.5 21.6c.2 1.8-.2 4.1.6 5.8.6 1.2 2.4 2.6 3.5 3.6.8.8 1.5 1.9 2.8 2.2 3 .8 3.6-1.6 3.8-3.1.7-5.2 1-10.6 1.3-15.8l.3-4.5c0-.1-.1-1.3.2-1.3s.3 1.3.3 1.5c0 1.6 0 3.3.3 4.9.9 6.6.7 13.3 1.5 19.9.2 1.9 3.5 2.6 5 .9.7-.8.6-2.6.6-3.6 0-2 .2-4.2.5-6.2 1.3-9.9 1.7-19.9 3-29.9.3-2.6.4-5.3.8-7.9.1-1.1-.2-2.6.8-3.5l.7 2.4c.3 2.6.9 5.3 1.3 7.9.8 6.2 2.4 12.1 4.2 18.2.6 2.1.8 4.5 1.9 6.6.8 1.5 3.5 1.9 4.7 3.2.9 1 1 3.1 1.3 4.3 1 3.8 1.5 8.3 3.3 11.8.5 1 2.1 1.4 3.5 1.1 2.3-.6 2-4.1 2-5.6 0-2.9.6-5.8 1-8.6.3-2.4.1-4.8.7-7.1.4-1.5.2-3.2.5-4.7 0-.2-.1-1.5.2-1.5l.3 1.7c.4 1.8.3 3.8 1 5.4s4.2 1.9 5 .2c.8-1.6.8-3.8 1.1-5.4.5-3.4 1.4-6.8 2-10.1l.8-3.8c0-.2.1-1.1.4-1.1s.3 1.2.4 1.3l.8 3.9c1.2 4.5 1.7 9.2 2.9 13.7.3 1.4 0 4.1 2.6 4.3 2.8.2 3.1-1.6 3.6-3.2 1.2-3.5 2.1-7.1 3.2-10.7.4-1.2.7-2.3 1.4-3.4.1-.2.4-.9.8-.9s.7 1.4.8 1.7c.7 1.6 1 4.5 2.5 5.8 1 .9 5.7 1.8 7.3 1.5.6-.1 2.3-1.2 2.7-1 .6.3.8 1.7 1 2.2.7 1.8 1.9 7.7 5.2 7.5 2.2-.1 2.9-2.1 3.6-3.3a112 112 0 0 0 5.6-10.9l1.6-3.8c.1-.2.3-.9.8-.9.8 0 1.3 2.5 1.5 3 .8 2.2 1.4 4.4 2.3 6.6.4.9.5 1.8 1.5 2.4 3.8 2.1 4.8-3.1 5.5-4.7.1-.2.6-1.9.8-1.9.3 0 1.3 3.1 1.4 3.4.9 2.1 2.3 3.2 4.1 4.9.9.8 2 2 3.6 2.1 3.6.1 3.7-5.6 4.3-7.5.1-.3.6-2.8.9-2.8.2 0 .6 1.5.7 1.7.6 1.6 1.3 4.3 4.5 3.5 2.4-.6 3.4-5.2 4.1-6.9.3-.6.6-2.1 1.4-2.3 1-.2 1.9 1.1 2.3 1.6 1.2 1.3 2.7 4.3 5.3 4.1 2.4-.1 3.3-2.4 5.3-2.9 1.8-.5 3.5.9 5.3 0 .6-.3 2-2.6 2.4-2.6.2 0 1 2.2 1.1 2.4.7 1.9 1.4 5.7 4.9 5.4 2.1-.2 2.5-2.4 3.2-3.6.1-.2.7-1.5 1-1.5.4 0 .9 1.4 1.1 1.7.7 1.2 1.2 2.6 3.2 2.8 1.8.1 3.6-1.1 5.3-1.4 1.6-.3 3.5.2 5.1-.1 1.6-.4 2.9-1.4 4.6-1.8 1.4-.3 2.9.1 4.3-.1 1.8-.3 3.3-1.4 5.1-1.8 1.5-.3 3.3 0 4.8-.3.7-.1 1.6-.6 2.5-.8.6-.2 1-.7 1-1.3v-.5a2 2 0 0 0-2.7-1.9l-2.6.8c-1.4.3-2.9-.1-4.3.1-1.8.3-3.1 1.3-4.8 1.8-1.7.4-3.6-.2-5.3.3-1.3.4-2.4 1.3-3.8 1.6-1.4.3-3.1-.1-4.6.1-.8.1-2 .8-2.8.6-.8-.2-1.1-1.3-1.3-1.8-.9-1.5-2-5.1-4.7-5.3-2.2-.1-2.9 1.6-3.5 2.8-.1.3-.6 1.5-1 1.5-.3 0-.8-1.6-.9-1.9-.7-1.6-1-4.7-3.9-4.9-4-.2-3.5 4.9-6.4 5.6-1.2.3-2.7-.5-4-.2-1 .3-2.3 1.8-3.2 1.8-.7 0-2.5-2.7-3-3.2a14.5 14.5 0 0 0-7.3-2.1c-2.2.2-2.6 2.3-3.2 3.6-.1.3-.5 1.7-1 1.7-.3 0-.9-2-1-2.3-.7-1.8-1.1-4.7-4.5-4.3-1.6.2-2 1.5-2.2 2.4l-2.2 7.9c-.1.4-.6 3.4-1.1 3.4-1 0-1.5-2.4-1.7-3l-2.8-6.9c-.4-.8-.5-2-1.5-2.6-3.6-2.1-4.9 2.6-5.5 4.3-.1.2-.5 1.9-.8 1.9-.2 0-.7-1.9-.8-2.1-.7-1.6-.8-5-3.6-5.3a16 16 0 0 0-7 1.5c-.8.7-1.1 1.9-1.4 2.8l-2.6 6c-.6 1.3-1.2 2.7-1.9 3.9-.1.2-.5 1.1-.9 1.1-.3 0-.8-1.5-.9-1.7-.6-1.4-.9-4-2.4-5-3.2-2.1-5.7 3-8.6 1.7-.9-.4-1-1.8-1.3-2.5-1.1-2.3-1.9-4.8-2.8-7.1-.5-1.4-2.2-3.1-4.5-2.1-1.1.5-1.5 1.7-2.1 2.4-1.6 2.2-3.3 4.1-4.1 6.6-.1.4-.8 3.4-1.1 3.4-.4 0-.3-.9-.3-1.1l-.7-3.6c-.3-1.9-.8-3.8-1.2-5.6-.2-.8-.1-1.9-.9-2.6s-2.2-1.2-3.2-1.7c-1.2-.6-2.5-1.5-4-1.3-3.2.6-2.9 6.2-3.3 8.2l-.6 2.8c-.3 0-.6-2.7-.6-3-.6-2.7-.7-5.6-1.6-8.3-.4-1.2-2.2-1.8-3.7-1.3-2.3.8-2 4.9-2 6.6 0 3.7-.8 7.6-1.3 11.3-.3 2.3-.1 4.7-.7 6.9-.4 1.6-.6 3.6-.6 5.3 0 .2.1 1.7-.2 1.7s-.8-2.7-.9-3c-.7-1.4-3.2-2-4.5-3-.8-.6-1-2.2-1.2-3-1-3.8-2.4-7.6-3.5-11.5-1.7-6.1-2.3-12.8-3.1-19-.4-3-.7-6.1-1.4-9-.3-1.1-.1-2.4-2.1-2.6-3.7-.3-4.1 3.4-4.9 5.4-.9 2.3-2.1 4.5-2.9 6.8-1 3.1-1.1 7-1.1 10.1 0 1.8-.5 3.6-.5 5.4 0 .2.2 1.7-.4 1.7-.2 0-.1-1.5-.1-1.7 0-1.8-.4-3.6-.5-5.4-.3-6.1-1.3-12.3-1.3-18.4 0-1.5.4-5.4-2.3-5.6-1.3-.1-2.7.1-3.2 1.1-1.1 2.4-.5 5.8-.8 8.3-1.4 10.6-1.1 21.3-2.5 31.9-.4 3.1-.4 6.1-.8 9.2 0 .3.2 2.8-.2 2.8l-.3-1.9c0-1.9-.1-4-.6-5.8-2.1-8.2-1.1-16.8-2.7-25-.5-2.1.5-8.4-3-9-2.6-.4-5.6 3-7.1 4.3-.2.2-1 1.5-1.2 1.5l-.3-1.1c-.2-1.3-.3-2.7-.6-3.9-1.1-4-1.3-8.2-2.2-12.2-.3-1.3.1-3.3-1.3-4.3-1.4-1-3.5-.5-4.3.8-.1.2-.6 1.3-.9 1.3l-.3-.9-.6-3.2c-.9-3.4-1.2-6.8-2.1-10.1-.3-1.3-.4-2.8-2.6-2.9-2-.2-2.6 1-2.9 2.2-.7 2.6-.1 5.3-.8 7.9-1.1 4.3-.6 9-1.2 13.3-.9 7.1-1.6 14.3-2 21.4-.2 3.2-.3 6.8-1.2 10-.1.3-.1 2.8-.5 2.8-.2 0-.1-2.4-.1-2.6-.1-2.9-.1-6-.5-8.8-.8-5.5-.3-11.2-1-16.7-.6-4.8-1-9.8-1-14.7 0-2.4-.2-4.9-.5-7.3-.1-1.1-.1-2.3-2-2.4-4-.3-7.8 3.1-8.1 5.6l-2.3 18.4c-.3 2.5-.3 5.2-.9 7.7-.6 2.4-.7 5.1-.8 7.5 0 .3-.2 2.3-.6 2.3-.2 0-.2-1.5-.2-1.7-.4-1.7-.6-3.5-.7-5.3-.4-6.6-1.7-13.3-2.5-19.9-.2-1.5-2-5.9-5-3.2-.9.8-.6 2.2-.8 3.2-.6 3-.8 6-1.2 9-1.5 11.5-4.3 23.1-4.6 34.6-.1 3.7-.8 7.4-1.3 11.1 0 .3-.1 3.4-.4 3.4l-.3-1.1c-.3-1.2-.8-2.5-.8-3.8-.3-5.5-1-11-1-16.5 0-4.5-.4-9.1-1-13.5-.7-5-.4-10.1-1-15.2-1.3-9.6-.4-19.2-2.5-28.7-1-4.4-2.3-8.7-3.1-13.1-.3-1.5-.4-3.9-3-4.1-2.7-.2-2.7 1.8-3 3.2-.7 3.5.3 7.2-.6 10.7-1 3.6-.2 7.6-.7 11.3-1.5 11.6-1 23.3-2.5 34.9-.5 4.2-.5 8.4-.8 12.6l-.4 3c0 .1-.1.9-.3.9-.2 0-.1-1-.1-1.1v-3.9c0-5.6-.5-11.1-.5-16.7 0-7.6 0-15.7-1-23.3-.3-2.3.1-4.7 0-6.9-.5-9.8-.5-19.5-1-29.3-.3-4.7.1-9.6-.5-14.3-.1-1.7-.7-4.1-3.9-3.1" fill="#fff"/>
</svg>