<svg viewBox="0 0 124 32" xmlns="http://www.w3.org/2000/svg">
  <title>
    wbg-logo
  </title>
  <g fill="none">
    <path d="M51.6 15.3c.5-.5 1-.8 1.8-.8a2 2 0 0 1 1.5.7c.5.4.7 1.2.7 2.2h-4.8c.1-1 .4-1.7.8-2.1zm7.6 6.4c-1.6.5-3 .7-4.1.7a5 5 0 0 1-2.3-.4c-.6-.3-1-.6-1.3-1-.4-.5-.6-1.1-.7-1.9h8.4c0-2.5-.6-4.2-1.6-5.1a6 6 0 0 0-4.1-1.4c-1.4 0-2.6.2-3.6.8-1 .5-1.6 1.2-2.1 2.1a6 6 0 0 0-.8 3 6 6 0 0 0 .9 3.1c.6 1 1.4 1.7 2.5 2.2 1.1.4 2.4.7 3.9.7s3.1-.2 4.9-.7v-2zm1.4 2.2v-2.3c1.8.6 3.3 1 4.6 1 .7 0 1.3-.2 1.7-.4.4-.3.6-.6.6-1 0-.3-.2-.5-.5-.7-.3-.3-.8-.5-1.4-.7l-1.2-.4a8.5 8.5 0 0 1-2.8-1.4c-.6-.5-1-1.2-1-2 0-1 .5-1.8 1.4-2.4 1-.7 2.4-1 4.2-1 1.1 0 2.5.1 4 .4v2c-1.5-.4-2.7-.6-3.7-.6a4 4 0 0 0-1.7.3c-.4.3-.6.5-.6.9 0 .3.2.5.4.7l1.3.6 1 .3c1.8.6 3 1.2 3.5 1.7.6.5.8 1.1.8 1.9 0 1-.5 1.8-1.4 2.5-1 .7-2.5 1-4.3 1a21 21 0 0 1-4.9-.5zm19.5.3l-2 .3c-1.2 0-2.1-.2-2.8-.4-.7-.3-1.1-.7-1.5-1.2a4 4 0 0 1-.5-2.1v-6h-1.5v-2h1.5V11l3.7-.3v2.2h2.9v2h-3v5.5c0 .9.3 1.4.6 1.7.3.3.8.4 1.5.4l1.1-.1v1.9zm5.4-7.4c.5-.6 1-1 1.5-1.3a3 3 0 0 1 1.5-.5c.9 0 1.5.3 2 1 .4.6.7 1.4.7 2.5 0 1-.3 2-.8 2.8-.4.8-1.2 1.2-2.1 1.2-.5 0-1-.1-1.4-.3-.4-.2-.9-.5-1.4-1v-4.4zm0 11.5V23l1.3 1a5.4 5.4 0 0 0 2.5.5c1.8 0 3.2-.6 4.2-1.8 1-1.2 1.5-2.7 1.5-4.5a6 6 0 0 0-1.3-4c-1-1-2.2-1.6-3.8-1.6-1 0-1.9.2-2.6.6-.7.4-1.3 1-1.8 1.8v-2.2H82v15.5h3.6zm16.9-6.2l-1.3.3a2 2 0 0 1-1.3-.4c-.3-.3-.5-.7-.5-1.1 0-.5.3-1 .9-1.3.5-.4 1.4-.5 2.6-.5h.9v2.2l-1.3.8zm1.4.9c.3.6.7 1 1.2 1.2.5.2 1 .3 1.7.3l2-.3v-1.7h-.5c-.2 0-.4 0-.7-.2-.2-.1-.3-.5-.3-1.1v-5c0-1-.3-1.7-.7-2.2-.5-.5-1.1-.8-2-1-.7-.3-1.6-.4-2.6-.4a18 18 0 0 0-5 .8v2.1c1.5-.7 3-1 4.3-1 .7 0 1.3.1 1.8.4.4.2.7.7.7 1.4v1h-1c-2.4 0-4.2.4-5.3 1.1-1 .8-1.6 1.7-1.6 2.8a3 3 0 0 0 1 2.3c.8.7 1.8 1 3 1a6.1 6.1 0 0 0 2.5-.6l1.4-.9h.1zm16.4 1a19 19 0 0 1-4.2.5c-2.3 0-4-.6-5.1-1.7a5.8 5.8 0 0 1-1.8-4.3c0-1.7.6-3.2 1.9-4.3 1.2-1 3-1.6 5.3-1.6 1.1 0 2.4.1 3.8.4v2.3c-1.5-.4-2.6-.6-3.5-.6-1.2 0-2.1.4-2.7 1.2-.6.8-.9 1.6-.9 2.6 0 .7.2 1.4.5 2A3 3 0 0 0 115 22c.6.3 1.3.4 2 .4 1 0 2.2-.2 3.3-.6V24z" fill="#495761"/>
    <path d="M32.7 23.1l4.2-13.5c.6-2 1.6-2.6 3.2-2.6H48c-.6.3-1 1.9-1 1.9l-3.8 13.5a3.4 3.4 0 0 1-3.4 2.6h-8.4c.6-.1 1.3-1.9 1.3-1.9zm-13.4 0s.7 1.8 1.3 1.9h-8.4c-1.5 0-3-.9-3.4-2.6L5 9s-.4-1.7-1-2h8c1.5 0 2.5.6 3 2.6l4.3 13.5zm2.2 1.9V7h9v18h-9z" fill="#D5002B"/>
  </g>
</svg>